<svg xmlns="http://www.w3.org/2000/svg" class="searchCon" viewBox="0 0 1024 1024" width="200" height="200" t="1596319619444" p-id="2967" version="1.1"><path fill="#ffce00" d="M 534.8 524.5 m -201.9 0 a 201.9 201.9 0 1 0 403.8 0 a 201.9 201.9 0 1 0 -403.8 0 Z" p-id="2968" /><path fill="#242f44" d="M 471 811 c -47.3 0 -93.2 -9.3 -136.4 -27.5 c -41.7 -17.6 -79.2 -42.9 -111.3 -75.1 c -32.2 -32.2 -57.4 -69.6 -75.1 -111.3 c -18.3 -43.2 -27.5 -89.1 -27.5 -136.4 s 9.3 -93.2 27.5 -136.4 c 17.6 -41.7 42.9 -79.2 75.1 -111.3 c 32.2 -32.2 69.6 -57.4 111.3 -75.1 c 43.2 -18.3 89.1 -27.5 136.4 -27.5 s 93.2 9.3 136.4 27.5 c 41.7 17.6 79.2 42.9 111.3 75.1 c 32.2 32.2 57.4 69.6 75.1 111.3 c 18.3 43.2 27.5 89.1 27.5 136.4 s -9.3 93.2 -27.5 136.4 c -17.6 41.7 -42.9 79.2 -75.1 111.3 c -32.2 32.2 -69.6 57.4 -111.3 75.1 C 564.1 801.7 518.3 811 471 811 Z m 0 -610.6 c -69.5 0 -134.9 27.1 -184.1 76.2 s -76.2 114.5 -76.2 184.1 s 27.1 134.9 76.2 184.1 C 336.1 693.9 401.5 721 471 721 s 134.9 -27.1 184.1 -76.2 c 49.2 -49.2 76.2 -114.5 76.2 -184.1 S 704.2 325.8 655 276.6 c -49.1 -49.1 -114.5 -76.2 -184 -76.2 Z M 858.3 913.6 c -11.5 0 -23 -4.4 -31.8 -13.2 L 723.9 797.8 c -17.6 -17.6 -17.6 -46.1 0 -63.6 c 17.6 -17.6 46.1 -17.6 63.6 0 l 102.6 102.6 c 17.6 17.6 17.6 46.1 0 63.6 c -8.7 8.8 -20.3 13.2 -31.8 13.2 Z" p-id="2969" /></svg>